<svg xmlns="http://www.w3.org/2000/svg" width="82.536" height="94.803" viewBox="0 0 82.536 94.803">
  <path id="Icon_simple-graphcool" data-name="Icon simple-graphcool" d="M76.838,29.951c-4.465-2.482-10.075.755-10.974,1.315L46.591,42.058a7.6,7.6,0,0,0-9.639.227,7.365,7.365,0,0,0-1.511,9.4,7.565,7.565,0,0,0,9.091,3.158,7.419,7.419,0,0,0,4.783-8.261l19.22-10.77.122-.072c1.263-.789,4.194-1.968,5.564-1.205.987.552,1.55,2.391,1.6,5.1h-.023v23.8a6.222,6.222,0,0,1-3.149,5.387L45.011,84.58a6.388,6.388,0,0,1-6.3,0L11.079,68.821a6.222,6.222,0,0,1-3.149-5.387V31.93a6.211,6.211,0,0,1,3.149-5.383L36.088,12.3a7.58,7.58,0,0,0,9.486,1.511,7.371,7.371,0,0,0,3.245-8.926A7.532,7.532,0,0,0,40.519.1a7.452,7.452,0,0,0-6.279,7.181L8.438,22A11.456,11.456,0,0,0,2.607,31.93v31.5a11.456,11.456,0,0,0,5.812,9.938l27.63,15.76a11.78,11.78,0,0,0,11.621,0L75.3,73.365a11.477,11.477,0,0,0,5.812-9.931v-22.9h.019c.13-5.372-1.328-8.926-4.3-10.584Z" transform="translate(-0.607 2.008)" fill="#d04731" stroke="#431111" stroke-width="4"/>
</svg>
